<?xml version="1.0" encoding="utf-8"?>
<svg width="16" height="16" viewBox="-7.5 992.5 16 16" id="facebook--light" x="272" y="272" xmlns="http://www.w3.org/2000/svg">
    <path fill="#FFF" d="M8.5 993.5v14c0 .547-.453 1-1 1h-4v-6.219h2l.336-2.305H3.5v-1.812c0-.656.336-1.031 1-1.031H6v-2.078s-.672-.109-1.641-.109c-2.195 0-3.305 1.219-3.305 3.039v1.992h-2v2.305h2v6.219H-6.5c-.547 0-1-.453-1-1v-14c0-.547.453-1 1-1h14c.547-.001 1 .452 1 .999z"/>
</svg>
<svg width="16" height="16" viewBox="-7.5 992.5 16 16" id="instagram--light" x="416" y="416" xmlns="http://www.w3.org/2000/svg"><path fill="#FFF" d="M8.5 994.836v11.328a2.337 2.337 0 0 1-2.336 2.336H-5.164a2.337 2.337 0 0 1-2.336-2.336v-11.328a2.337 2.337 0 0 1 2.336-2.336H6.164a2.337 2.337 0 0 1 2.336 2.336zM6.836 999.5H5.062c.07.32.102.656.102 1 0 2.578-2.086 4.664-4.664 4.664s-4.664-2.086-4.664-4.664c0-.344.031-.68.102-1h-1.773v7c0 .188.148.336.336.336h12a.333.333 0 0 0 .336-.336v-7zm-9.336 1a3.001 3.001 0 0 0 6 0 3.001 3.001 0 0 0-6 0zm9.336-6a.333.333 0 0 0-.336-.336h-2a.333.333 0 0 0-.336.336v2c0 .188.148.336.336.336h2a.333.333 0 0 0 .336-.336v-2z"/></svg>
<svg width="16" height="16" viewBox="-7.5 992.5 16 16" id="mail--light" x="576" y="576" xmlns="http://www.w3.org/2000/svg"><path fill="#FFF" d="M.5 1001.5l-8-6c0-.555.446-1 1-1h14c.554 0 1 .445 1 1l-8 6zm0 1.798l8-6.001v8.203c0 .555-.446 1-1 1h-14c-.554 0-1-.445-1-1v-8.203l8 6.001z"/></svg>
<svg width="16" height="16" viewBox="-7.5 992.5 16 16" id="pinterest--light" x="672" y="672" xmlns="http://www.w3.org/2000/svg"><path fill="#FFF" d="M6.688 997.759c0 3.609-2.001 6.297-4.946 6.297-1 0-1.93-.516-2.258-1.125 0 0-.523 2.109-.648 2.516-.391 1.445-1.555 2.891-1.649 3-.078.094-.203.055-.227-.038-.016-.188-.312-2.017.039-3.501.164-.742 1.164-5 1.164-5s-.273-.594-.273-1.461c0-1.376.773-2.376 1.757-2.376.836 0 1.243.617 1.243 1.376 0 .835-.539 2.094-.821 3.258-.219.984.5 1.781 1.469 1.781 1.742 0 2.906-2.242 2.906-4.891 0-2.024-1.352-3.524-3.813-3.524-2.796 0-4.539 2.079-4.539 4.391 0 .82.243 1.376.61 1.821.164.203.188.273.132.5-.039.18-.148.586-.188.733-.055.243-.242.321-.461.243-1.281-.539-1.875-1.945-1.875-3.516 0-2.609 2.188-5.743 6.555-5.743 3.526 0 5.823 2.54 5.823 5.259z"/></svg>
<svg width="16" height="16" viewBox="-7.5 992.5 16 16" id="rss--light" x="816" y="816" xmlns="http://www.w3.org/2000/svg"><g fill="#FFF"><circle cx="-5.5" cy="1006.5" r="2"/><path d="M-7.5 995.5c7.2 0 13 5.8 13 13h3c0-8.8-7.2-16-16-16v3zm0 3v3c3.9 0 7 3.101 7 7h3c0-5.5-4.5-10-10-10z"/></g></svg>
<svg width="16" height="16" viewBox="-7.5 992.5 16 16" id="twitter--light" x="1024" y="1024" xmlns="http://www.w3.org/2000/svg"><path fill="#FFF" d="M6.867 997.234v.43c0 4.336-3.297 9.336-9.328 9.336-1.852 0-3.594-.406-5.039-1.336.258.039.516.055.781.055 1.531 0 2.961-.664 4.07-1.555-1.422-.016-2.648-.984-3.055-2.281a3.227 3.227 0 0 0 1.484-.055 3.28 3.28 0 0 1-2.633-3.219v-.039c.445.242.945.391 1.484.406a3.266 3.266 0 0 1-1.469-2.719c0-.609.172-1.109.445-1.594 1.633 1.984 4.039 3.219 6.758 3.367a3.4 3.4 0 0 1-.07-.758 3.267 3.267 0 0 1 3.273-3.273c.945 0 1.797.406 2.414 1.031a6.571 6.571 0 0 0 2.07-.797 3.252 3.252 0 0 1-1.445 1.82 6.42 6.42 0 0 0 1.891-.523 6.587 6.587 0 0 1-1.631 1.704z"/></svg>
<svg width="16" height="16" viewBox="-7.5 992.5 16 16" id="youtube--light" x="1280" y="1280" xmlns="http://www.w3.org/2000/svg"><path fill="#FFF" d="M8.5 1000.5c0 5.664 0 5.664-8 5.664s-8 0-8-5.664 0-5.664 8-5.664 8 0 8 5.664zm-5 0l-5-3v6l5-3z"/></svg>